<mxfile host="app.diagrams.net" agent="Mozilla/5.0 (X11; Linux x86_64) AppleWebKit/537.36 (KHTML, like Gecko) Chrome/129.0.0.0 Safari/537.36" version="24.7.17">
  <diagram id="C5RBs43oDa-KdzZeNtuy" name="Page-1">
    <mxGraphModel dx="1137" dy="674" grid="1" gridSize="10" guides="1" tooltips="1" connect="1" arrows="1" fold="1" page="1" pageScale="1" pageWidth="827" pageHeight="1169" math="0" shadow="0">
      <root>
        <mxCell id="WIyWlLk6GJQsqaUBKTNV-0" />
        <mxCell id="WIyWlLk6GJQsqaUBKTNV-1" parent="WIyWlLk6GJQsqaUBKTNV-0" />
        <mxCell id="9c2Bx8ahzLwP0PHAcrbr-3" value="" style="edgeStyle=none;curved=1;rounded=0;orthogonalLoop=1;jettySize=auto;html=1;fontSize=12;startSize=8;endSize=8;" edge="1" parent="WIyWlLk6GJQsqaUBKTNV-1" source="9c2Bx8ahzLwP0PHAcrbr-0" target="9c2Bx8ahzLwP0PHAcrbr-2">
          <mxGeometry relative="1" as="geometry" />
        </mxCell>
        <mxCell id="9c2Bx8ahzLwP0PHAcrbr-0" value="" style="ellipse;whiteSpace=wrap;html=1;aspect=fixed;" vertex="1" parent="WIyWlLk6GJQsqaUBKTNV-1">
          <mxGeometry x="260" y="40" width="80" height="80" as="geometry" />
        </mxCell>
        <mxCell id="9c2Bx8ahzLwP0PHAcrbr-5" value="" style="edgeStyle=none;curved=1;rounded=0;orthogonalLoop=1;jettySize=auto;html=1;fontSize=12;startSize=8;endSize=8;" edge="1" parent="WIyWlLk6GJQsqaUBKTNV-1" source="9c2Bx8ahzLwP0PHAcrbr-2" target="9c2Bx8ahzLwP0PHAcrbr-4">
          <mxGeometry relative="1" as="geometry" />
        </mxCell>
        <mxCell id="9c2Bx8ahzLwP0PHAcrbr-2" value="cur_stat = 현재위치&lt;div&gt;push_button = 버튼 누름&lt;br&gt;&lt;div&gt;push_stat = 누름 상태&lt;/div&gt;&lt;/div&gt;&lt;div&gt;current = 흐름 바꾸기&lt;/div&gt;" style="whiteSpace=wrap;html=1;" vertex="1" parent="WIyWlLk6GJQsqaUBKTNV-1">
          <mxGeometry x="225" y="159" width="150" height="70" as="geometry" />
        </mxCell>
        <mxCell id="9c2Bx8ahzLwP0PHAcrbr-7" value="" style="edgeStyle=none;curved=1;rounded=0;orthogonalLoop=1;jettySize=auto;html=1;fontSize=12;startSize=8;endSize=8;" edge="1" parent="WIyWlLk6GJQsqaUBKTNV-1" source="9c2Bx8ahzLwP0PHAcrbr-4" target="9c2Bx8ahzLwP0PHAcrbr-6">
          <mxGeometry relative="1" as="geometry" />
        </mxCell>
        <mxCell id="9c2Bx8ahzLwP0PHAcrbr-4" value="&lt;div&gt;&lt;span style=&quot;background-color: initial;&quot;&gt;servo.write(0);&lt;/span&gt;&lt;br&gt;&lt;/div&gt;" style="whiteSpace=wrap;html=1;" vertex="1" parent="WIyWlLk6GJQsqaUBKTNV-1">
          <mxGeometry x="225" y="260" width="150" height="80" as="geometry" />
        </mxCell>
        <mxCell id="9c2Bx8ahzLwP0PHAcrbr-9" value="" style="edgeStyle=none;curved=1;rounded=0;orthogonalLoop=1;jettySize=auto;html=1;fontSize=12;startSize=8;endSize=8;" edge="1" parent="WIyWlLk6GJQsqaUBKTNV-1" source="9c2Bx8ahzLwP0PHAcrbr-6" target="9c2Bx8ahzLwP0PHAcrbr-8">
          <mxGeometry relative="1" as="geometry" />
        </mxCell>
        <mxCell id="9c2Bx8ahzLwP0PHAcrbr-6" value="int push_button&amp;nbsp;= digitalRead(BUTTON);" style="whiteSpace=wrap;html=1;" vertex="1" parent="WIyWlLk6GJQsqaUBKTNV-1">
          <mxGeometry x="200" y="380" width="200" height="60" as="geometry" />
        </mxCell>
        <mxCell id="9c2Bx8ahzLwP0PHAcrbr-11" value="" style="edgeStyle=none;curved=1;rounded=0;orthogonalLoop=1;jettySize=auto;html=1;fontSize=12;startSize=8;endSize=8;" edge="1" parent="WIyWlLk6GJQsqaUBKTNV-1" source="9c2Bx8ahzLwP0PHAcrbr-8" target="9c2Bx8ahzLwP0PHAcrbr-50">
          <mxGeometry relative="1" as="geometry">
            <mxPoint x="360" y="600" as="targetPoint" />
          </mxGeometry>
        </mxCell>
        <mxCell id="9c2Bx8ahzLwP0PHAcrbr-14" value="True" style="edgeLabel;html=1;align=center;verticalAlign=middle;resizable=0;points=[];fontSize=12;" vertex="1" connectable="0" parent="9c2Bx8ahzLwP0PHAcrbr-11">
          <mxGeometry x="-0.1" relative="1" as="geometry">
            <mxPoint as="offset" />
          </mxGeometry>
        </mxCell>
        <mxCell id="9c2Bx8ahzLwP0PHAcrbr-42" value="" style="edgeStyle=none;curved=1;rounded=0;orthogonalLoop=1;jettySize=auto;html=1;fontSize=12;startSize=8;endSize=8;" edge="1" parent="WIyWlLk6GJQsqaUBKTNV-1" source="9c2Bx8ahzLwP0PHAcrbr-8" target="9c2Bx8ahzLwP0PHAcrbr-41">
          <mxGeometry relative="1" as="geometry" />
        </mxCell>
        <mxCell id="9c2Bx8ahzLwP0PHAcrbr-43" value="False" style="edgeLabel;html=1;align=center;verticalAlign=middle;resizable=0;points=[];fontSize=12;" vertex="1" connectable="0" parent="9c2Bx8ahzLwP0PHAcrbr-42">
          <mxGeometry x="-0.0333" y="5" relative="1" as="geometry">
            <mxPoint x="-4" y="5" as="offset" />
          </mxGeometry>
        </mxCell>
        <mxCell id="9c2Bx8ahzLwP0PHAcrbr-8" value="push_button&amp;nbsp;== HIGH &amp;amp;&amp;amp;&amp;nbsp;&lt;div&gt;push_stat == HIGH&lt;/div&gt;" style="rhombus;whiteSpace=wrap;html=1;" vertex="1" parent="WIyWlLk6GJQsqaUBKTNV-1">
          <mxGeometry x="200" y="480" width="200" height="80" as="geometry" />
        </mxCell>
        <mxCell id="9c2Bx8ahzLwP0PHAcrbr-13" value="" style="edgeStyle=none;curved=1;rounded=0;orthogonalLoop=1;jettySize=auto;html=1;fontSize=12;startSize=8;endSize=8;" edge="1" parent="WIyWlLk6GJQsqaUBKTNV-1" source="9c2Bx8ahzLwP0PHAcrbr-10" target="9c2Bx8ahzLwP0PHAcrbr-16">
          <mxGeometry relative="1" as="geometry">
            <mxPoint x="370" y="800" as="targetPoint" />
          </mxGeometry>
        </mxCell>
        <mxCell id="9c2Bx8ahzLwP0PHAcrbr-24" value="True" style="edgeLabel;html=1;align=center;verticalAlign=middle;resizable=0;points=[];fontSize=12;" vertex="1" connectable="0" parent="9c2Bx8ahzLwP0PHAcrbr-13">
          <mxGeometry x="-0.04" y="1" relative="1" as="geometry">
            <mxPoint x="-1" y="-4" as="offset" />
          </mxGeometry>
        </mxCell>
        <mxCell id="9c2Bx8ahzLwP0PHAcrbr-19" value="" style="edgeStyle=none;curved=1;rounded=0;orthogonalLoop=1;jettySize=auto;html=1;fontSize=12;startSize=8;endSize=8;" edge="1" parent="WIyWlLk6GJQsqaUBKTNV-1" source="9c2Bx8ahzLwP0PHAcrbr-10" target="9c2Bx8ahzLwP0PHAcrbr-18">
          <mxGeometry relative="1" as="geometry" />
        </mxCell>
        <mxCell id="9c2Bx8ahzLwP0PHAcrbr-23" value="False" style="edgeLabel;html=1;align=center;verticalAlign=middle;resizable=0;points=[];fontSize=12;" vertex="1" connectable="0" parent="9c2Bx8ahzLwP0PHAcrbr-19">
          <mxGeometry x="-0.22" relative="1" as="geometry">
            <mxPoint as="offset" />
          </mxGeometry>
        </mxCell>
        <mxCell id="9c2Bx8ahzLwP0PHAcrbr-10" value="cur_stat&amp;nbsp; == MAX" style="rhombus;whiteSpace=wrap;html=1;" vertex="1" parent="WIyWlLk6GJQsqaUBKTNV-1">
          <mxGeometry x="240" y="700" width="120" height="80" as="geometry" />
        </mxCell>
        <mxCell id="9c2Bx8ahzLwP0PHAcrbr-38" style="edgeStyle=orthogonalEdgeStyle;rounded=0;orthogonalLoop=1;jettySize=auto;html=1;exitX=0;exitY=0.5;exitDx=0;exitDy=0;fontSize=12;startSize=8;endSize=8;" edge="1" parent="WIyWlLk6GJQsqaUBKTNV-1" source="9c2Bx8ahzLwP0PHAcrbr-39">
          <mxGeometry relative="1" as="geometry">
            <mxPoint x="200" y="410" as="targetPoint" />
            <Array as="points">
              <mxPoint x="140" y="1050" />
              <mxPoint x="140" y="410" />
            </Array>
          </mxGeometry>
        </mxCell>
        <mxCell id="9c2Bx8ahzLwP0PHAcrbr-40" value="" style="edgeStyle=none;curved=1;rounded=0;orthogonalLoop=1;jettySize=auto;html=1;fontSize=12;startSize=8;endSize=8;" edge="1" parent="WIyWlLk6GJQsqaUBKTNV-1" source="9c2Bx8ahzLwP0PHAcrbr-12" target="9c2Bx8ahzLwP0PHAcrbr-39">
          <mxGeometry relative="1" as="geometry" />
        </mxCell>
        <mxCell id="9c2Bx8ahzLwP0PHAcrbr-12" value="cur_stat += current * 10;&lt;div&gt;servo.write(cur_stat);&lt;/div&gt;" style="whiteSpace=wrap;html=1;" vertex="1" parent="WIyWlLk6GJQsqaUBKTNV-1">
          <mxGeometry x="230" y="920" width="140" height="60" as="geometry" />
        </mxCell>
        <mxCell id="9c2Bx8ahzLwP0PHAcrbr-17" style="edgeStyle=none;curved=1;rounded=0;orthogonalLoop=1;jettySize=auto;html=1;exitX=0.5;exitY=1;exitDx=0;exitDy=0;fontSize=12;startSize=8;endSize=8;" edge="1" parent="WIyWlLk6GJQsqaUBKTNV-1" source="9c2Bx8ahzLwP0PHAcrbr-16" target="9c2Bx8ahzLwP0PHAcrbr-12">
          <mxGeometry relative="1" as="geometry" />
        </mxCell>
        <mxCell id="9c2Bx8ahzLwP0PHAcrbr-16" value="current = -1" style="rounded=0;whiteSpace=wrap;html=1;" vertex="1" parent="WIyWlLk6GJQsqaUBKTNV-1">
          <mxGeometry x="240" y="820" width="120" height="60" as="geometry" />
        </mxCell>
        <mxCell id="9c2Bx8ahzLwP0PHAcrbr-25" style="edgeStyle=none;curved=1;rounded=0;orthogonalLoop=1;jettySize=auto;html=1;exitX=0.5;exitY=1;exitDx=0;exitDy=0;fontSize=12;startSize=8;endSize=8;" edge="1" parent="WIyWlLk6GJQsqaUBKTNV-1" source="9c2Bx8ahzLwP0PHAcrbr-18" target="9c2Bx8ahzLwP0PHAcrbr-26">
          <mxGeometry relative="1" as="geometry">
            <mxPoint x="464" y="820" as="targetPoint" />
          </mxGeometry>
        </mxCell>
        <mxCell id="9c2Bx8ahzLwP0PHAcrbr-31" value="" style="edgeStyle=none;curved=1;rounded=0;orthogonalLoop=1;jettySize=auto;html=1;fontSize=12;startSize=8;endSize=8;" edge="1" parent="WIyWlLk6GJQsqaUBKTNV-1" source="9c2Bx8ahzLwP0PHAcrbr-18" target="9c2Bx8ahzLwP0PHAcrbr-26">
          <mxGeometry relative="1" as="geometry" />
        </mxCell>
        <mxCell id="9c2Bx8ahzLwP0PHAcrbr-32" value="True" style="edgeLabel;html=1;align=center;verticalAlign=middle;resizable=0;points=[];fontSize=12;" vertex="1" connectable="0" parent="9c2Bx8ahzLwP0PHAcrbr-31">
          <mxGeometry x="-0.1857" y="1" relative="1" as="geometry">
            <mxPoint as="offset" />
          </mxGeometry>
        </mxCell>
        <mxCell id="9c2Bx8ahzLwP0PHAcrbr-33" style="edgeStyle=orthogonalEdgeStyle;rounded=0;orthogonalLoop=1;jettySize=auto;html=1;exitX=1;exitY=0.5;exitDx=0;exitDy=0;fontSize=12;" edge="1" parent="WIyWlLk6GJQsqaUBKTNV-1" source="9c2Bx8ahzLwP0PHAcrbr-18" target="9c2Bx8ahzLwP0PHAcrbr-12">
          <mxGeometry relative="1" as="geometry">
            <mxPoint x="464" y="900" as="targetPoint" />
            <Array as="points">
              <mxPoint x="570" y="740" />
              <mxPoint x="570" y="900" />
              <mxPoint x="300" y="900" />
            </Array>
          </mxGeometry>
        </mxCell>
        <mxCell id="9c2Bx8ahzLwP0PHAcrbr-35" value="False" style="edgeLabel;html=1;align=center;verticalAlign=middle;resizable=0;points=[];fontSize=12;" vertex="1" connectable="0" parent="9c2Bx8ahzLwP0PHAcrbr-33">
          <mxGeometry x="-0.8443" y="-1" relative="1" as="geometry">
            <mxPoint x="9" y="58" as="offset" />
          </mxGeometry>
        </mxCell>
        <mxCell id="9c2Bx8ahzLwP0PHAcrbr-18" value="cur_stat&amp;nbsp; == MIN" style="rhombus;whiteSpace=wrap;html=1;" vertex="1" parent="WIyWlLk6GJQsqaUBKTNV-1">
          <mxGeometry x="406" y="700" width="116" height="80" as="geometry" />
        </mxCell>
        <mxCell id="9c2Bx8ahzLwP0PHAcrbr-26" value="current = 1" style="rounded=0;whiteSpace=wrap;html=1;" vertex="1" parent="WIyWlLk6GJQsqaUBKTNV-1">
          <mxGeometry x="404" y="820" width="120" height="60" as="geometry" />
        </mxCell>
        <mxCell id="9c2Bx8ahzLwP0PHAcrbr-28" value="" style="edgeStyle=segmentEdgeStyle;endArrow=classic;html=1;curved=0;rounded=0;endSize=8;startSize=8;sourcePerimeterSpacing=0;targetPerimeterSpacing=0;fontSize=12;exitX=0.5;exitY=1;exitDx=0;exitDy=0;" edge="1" parent="WIyWlLk6GJQsqaUBKTNV-1" source="9c2Bx8ahzLwP0PHAcrbr-26" target="9c2Bx8ahzLwP0PHAcrbr-12">
          <mxGeometry width="140" relative="1" as="geometry">
            <mxPoint x="320" y="780" as="sourcePoint" />
            <mxPoint x="300" y="900" as="targetPoint" />
            <Array as="points">
              <mxPoint x="464" y="900" />
              <mxPoint x="300" y="900" />
            </Array>
          </mxGeometry>
        </mxCell>
        <mxCell id="9c2Bx8ahzLwP0PHAcrbr-39" value="delay(50);" style="whiteSpace=wrap;html=1;" vertex="1" parent="WIyWlLk6GJQsqaUBKTNV-1">
          <mxGeometry x="240" y="1020" width="120" height="60" as="geometry" />
        </mxCell>
        <mxCell id="9c2Bx8ahzLwP0PHAcrbr-45" value="" style="edgeStyle=none;curved=1;rounded=0;orthogonalLoop=1;jettySize=auto;html=1;fontSize=12;startSize=8;endSize=8;entryX=0;entryY=0.5;entryDx=0;entryDy=0;" edge="1" parent="WIyWlLk6GJQsqaUBKTNV-1" source="9c2Bx8ahzLwP0PHAcrbr-41" target="9c2Bx8ahzLwP0PHAcrbr-44">
          <mxGeometry relative="1" as="geometry">
            <mxPoint x="720" y="520" as="targetPoint" />
            <Array as="points">
              <mxPoint x="690" y="520" />
            </Array>
          </mxGeometry>
        </mxCell>
        <mxCell id="9c2Bx8ahzLwP0PHAcrbr-47" value="True" style="edgeLabel;html=1;align=center;verticalAlign=middle;resizable=0;points=[];fontSize=12;" vertex="1" connectable="0" parent="9c2Bx8ahzLwP0PHAcrbr-45">
          <mxGeometry x="0.2" y="5" relative="1" as="geometry">
            <mxPoint x="-6" y="5" as="offset" />
          </mxGeometry>
        </mxCell>
        <mxCell id="9c2Bx8ahzLwP0PHAcrbr-48" style="edgeStyle=orthogonalEdgeStyle;rounded=0;orthogonalLoop=1;jettySize=auto;html=1;exitX=0.5;exitY=0;exitDx=0;exitDy=0;fontSize=12;startSize=8;endSize=8;" edge="1" parent="WIyWlLk6GJQsqaUBKTNV-1" source="9c2Bx8ahzLwP0PHAcrbr-41" target="9c2Bx8ahzLwP0PHAcrbr-6">
          <mxGeometry relative="1" as="geometry">
            <mxPoint x="570" y="410" as="targetPoint" />
            <Array as="points">
              <mxPoint x="570" y="410" />
            </Array>
          </mxGeometry>
        </mxCell>
        <mxCell id="9c2Bx8ahzLwP0PHAcrbr-49" value="False" style="edgeLabel;html=1;align=center;verticalAlign=middle;resizable=0;points=[];fontSize=12;" vertex="1" connectable="0" parent="9c2Bx8ahzLwP0PHAcrbr-48">
          <mxGeometry x="0.0571" y="-3" relative="1" as="geometry">
            <mxPoint x="62" y="43" as="offset" />
          </mxGeometry>
        </mxCell>
        <mxCell id="9c2Bx8ahzLwP0PHAcrbr-41" value="push_button&amp;nbsp;== LOW &amp;amp;&amp;amp;&amp;nbsp;&lt;div&gt;push_stat == LOW&lt;/div&gt;" style="rhombus;whiteSpace=wrap;html=1;" vertex="1" parent="WIyWlLk6GJQsqaUBKTNV-1">
          <mxGeometry x="470" y="480" width="200" height="80" as="geometry" />
        </mxCell>
        <mxCell id="9c2Bx8ahzLwP0PHAcrbr-46" style="edgeStyle=orthogonalEdgeStyle;rounded=0;orthogonalLoop=1;jettySize=auto;html=1;exitX=0;exitY=0.5;exitDx=0;exitDy=0;entryX=1;entryY=0.5;entryDx=0;entryDy=0;fontSize=12;startSize=8;endSize=8;" edge="1" parent="WIyWlLk6GJQsqaUBKTNV-1" source="9c2Bx8ahzLwP0PHAcrbr-44" target="9c2Bx8ahzLwP0PHAcrbr-6">
          <mxGeometry relative="1" as="geometry">
            <Array as="points">
              <mxPoint x="790" y="520" />
              <mxPoint x="790" y="410" />
            </Array>
          </mxGeometry>
        </mxCell>
        <mxCell id="9c2Bx8ahzLwP0PHAcrbr-44" value="push_stat = HIGH" style="whiteSpace=wrap;html=1;" vertex="1" parent="WIyWlLk6GJQsqaUBKTNV-1">
          <mxGeometry x="730" y="490" width="120" height="60" as="geometry" />
        </mxCell>
        <mxCell id="9c2Bx8ahzLwP0PHAcrbr-51" style="edgeStyle=none;curved=1;rounded=0;orthogonalLoop=1;jettySize=auto;html=1;fontSize=12;startSize=8;endSize=8;exitX=0.5;exitY=1;exitDx=0;exitDy=0;" edge="1" parent="WIyWlLk6GJQsqaUBKTNV-1" source="9c2Bx8ahzLwP0PHAcrbr-50" target="9c2Bx8ahzLwP0PHAcrbr-10">
          <mxGeometry relative="1" as="geometry">
            <mxPoint x="299.9999999999999" y="710" as="sourcePoint" />
          </mxGeometry>
        </mxCell>
        <mxCell id="9c2Bx8ahzLwP0PHAcrbr-50" value="push_stat = LOW" style="rounded=0;whiteSpace=wrap;html=1;" vertex="1" parent="WIyWlLk6GJQsqaUBKTNV-1">
          <mxGeometry x="240" y="610" width="120" height="50" as="geometry" />
        </mxCell>
      </root>
    </mxGraphModel>
  </diagram>
</mxfile>
